<svg width="110" height="56" viewBox="0 0 110 56" fill="none" xmlns="http://www.w3.org/2000/svg">
<path fill-rule="evenodd" clip-rule="evenodd" d="M57.7889 20.3362C57.7889 20.7467 57.6672 21.1479 57.4392 21.4892C57.2111 21.8305 56.887 22.0965 56.5078 22.2535C56.1286 22.4106 55.7113 22.4517 55.3087 22.3716C54.9062 22.2916 54.5364 22.0939 54.2461 21.8037C53.9559 21.5134 53.7582 21.1436 53.6782 20.7411C53.5981 20.3385 53.6392 19.9212 53.7962 19.542C53.9533 19.1628 54.2193 18.8387 54.5606 18.6106C54.9019 18.3826 55.3031 18.2609 55.7136 18.2609C55.9864 18.26 56.2566 18.3131 56.5088 18.4171C56.761 18.5211 56.9901 18.6739 57.183 18.8668C57.3759 19.0597 57.5287 19.2888 57.6327 19.541C57.7367 19.7932 57.7898 20.0634 57.7889 20.3362ZM49.2273 24.507V25.0204C48.8356 24.5966 48.3567 24.2628 47.8235 24.042C47.2903 23.8213 46.7156 23.7188 46.139 23.7416C45.3128 23.7327 44.4933 23.8913 43.7301 24.2079C42.9668 24.5245 42.2757 24.9925 41.6983 25.5837C41.121 26.1748 40.6694 26.8768 40.3709 27.6473C40.0724 28.4178 39.9332 29.2408 39.9616 30.0666C39.9323 30.8924 40.0707 31.7156 40.3684 32.4864C40.6661 33.2572 41.117 33.9597 41.6937 34.5514C42.2705 35.1432 42.9611 35.6119 43.7241 35.9292C44.487 36.2466 45.3063 36.4061 46.1326 36.398C46.7126 36.4247 47.2911 36.3208 47.8256 36.0941C48.3601 35.8674 48.8369 35.5236 49.2209 35.0881V35.6317C49.22 35.6903 49.2309 35.7485 49.2529 35.8028C49.275 35.8572 49.3077 35.9065 49.3491 35.948C49.3906 35.9894 49.44 36.0222 49.4943 36.0442C49.5486 36.0662 49.6068 36.0771 49.6654 36.0763H52.2541V24.0414H49.6874C49.5705 24.0446 49.4593 24.0925 49.3767 24.1752C49.294 24.2578 49.2461 24.3691 49.2429 24.4859L49.2273 24.507ZM49.2273 32.2034C48.9309 32.6117 48.5415 32.9434 48.0913 33.1712C47.6411 33.399 47.1431 33.5163 46.6386 33.5133C44.5944 33.5133 43.0315 32.2345 43.0315 30.0666C43.0315 27.8987 44.5944 26.6199 46.6386 26.6199C47.1419 26.6237 47.6375 26.744 48.0866 26.9712C48.5357 27.1985 48.9261 27.5266 49.2273 27.9299V32.2107V32.2034ZM54.1773 24.0615H57.2664V36.0699H54.1773V24.0414V24.0615ZM99.9804 23.7407C99.4038 23.7179 98.829 23.8203 98.2959 24.0411C97.7627 24.2619 97.2838 24.5957 96.8921 25.0194V18.2801H93.8029V36.068H96.3907C96.5076 36.0648 96.6188 36.0169 96.7015 35.9342C96.7842 35.8515 96.832 35.7403 96.8353 35.6234V35.0799C97.2218 35.5104 97.6982 35.8509 98.2307 36.0772C98.7632 36.3036 99.3389 36.4102 99.9171 36.3898C100.743 36.3961 101.561 36.2357 102.323 35.9182C103.085 35.6007 103.775 35.1326 104.352 34.542C104.929 33.9514 105.38 33.2505 105.68 32.4811C105.979 31.7118 106.12 30.8899 106.095 30.0648C106.121 29.2394 105.981 28.4172 105.681 27.6475C105.382 26.8779 104.931 26.1766 104.354 25.5858C103.777 24.9951 103.086 24.527 102.324 24.2098C101.562 23.8925 100.743 23.7327 99.9171 23.7398L99.9804 23.7407ZM99.4588 33.483C98.9535 33.4902 98.4541 33.3747 98.0033 33.1466C97.5524 32.9184 97.1636 32.5844 96.8701 32.1731V27.8914C97.1813 27.4989 97.5738 27.1786 98.0207 26.9524C98.4676 26.7263 98.9583 26.5997 99.4588 26.5814C101.503 26.5814 103.066 27.8602 103.066 30.0281C103.066 32.196 101.503 33.4748 99.4588 33.4748V33.483ZM92.2373 28.9492V36.1019H89.1481V29.3067C89.1481 27.3239 88.5303 26.5274 86.7831 26.5274C86.3124 26.5437 85.8501 26.657 85.425 26.8599C85 27.0629 84.6213 27.3513 84.3127 27.7071V36.0708H81.2235V24.0414H83.6509C83.7677 24.0446 83.879 24.0925 83.9616 24.1752C84.0443 24.2578 84.0922 24.3691 84.0954 24.4859V24.9993C84.5217 24.5749 85.0305 24.2424 85.5904 24.0224C86.1503 23.8025 86.7494 23.6997 87.3505 23.7205C88.5721 23.6754 89.7671 24.0846 90.7046 24.8691C91.7918 25.7647 92.2052 26.9133 92.2052 28.9272L92.2373 28.9492ZM73.8123 23.7425C73.2357 23.7197 72.661 23.8222 72.1278 24.0429C71.5946 24.2637 71.1157 24.5975 70.724 25.0213V18.2819H67.6349V36.068H70.2235C70.3404 36.0648 70.4516 36.0169 70.5343 35.9342C70.617 35.8515 70.6649 35.7403 70.6681 35.6234V35.0799C71.0554 35.5113 71.5327 35.8522 72.0664 36.0786C72.6001 36.305 73.177 36.4112 73.7564 36.3898C74.5819 36.3961 75.4002 36.2357 76.1622 35.9182C76.9243 35.6007 77.6144 35.1326 78.1912 34.542C78.7681 33.9514 79.2197 33.2505 79.5191 32.4811C79.8186 31.7118 79.9596 30.8899 79.9338 30.0648C79.9657 29.2381 79.829 28.4135 79.5317 27.6414C79.2345 26.8693 78.7831 26.1659 78.205 25.574C77.627 24.9822 76.9344 24.5143 76.1695 24.1989C75.4047 23.8835 74.5836 23.7273 73.7564 23.7398L73.8123 23.7425ZM73.2971 33.483C72.7919 33.4902 72.2924 33.3747 71.8416 33.1466C71.3908 32.9184 71.0019 32.5844 70.7084 32.1731V27.8914C71.0196 27.4989 71.4122 27.1786 71.8591 26.9524C72.306 26.7263 72.7966 26.5997 73.2971 26.5814C75.3413 26.5814 76.9042 27.8602 76.9042 30.0281C76.9042 32.196 75.3413 33.4748 73.2971 33.4748V33.483ZM64.9738 23.7389C65.4484 23.7238 65.9227 23.7778 66.3818 23.8993V26.7409C66.3818 26.7409 63.8151 25.8949 62.2311 27.6979V36.0992H59.1419V24.0414H61.7306C61.8475 24.0446 61.9587 24.0925 62.0414 24.1752C62.1241 24.2578 62.172 24.3691 62.1752 24.4859V24.9993C62.9076 24.2383 63.9001 23.7817 64.9545 23.7205L64.9738 23.7389ZM33.1288 34.9818L32.6466 33.8332L31.9114 32.2015L31.8803 32.1704C29.6462 27.3019 27.294 22.4886 24.8256 17.7347L24.7266 17.5514L23.9658 16.0205C23.6511 15.3938 23.2658 14.8051 22.8172 14.266C22.3291 13.6509 21.707 13.1554 20.9983 12.8172C20.2897 12.479 19.5131 12.307 18.7279 12.3144C17.9481 12.317 17.1782 12.4897 16.4719 12.8204C15.7656 13.1512 15.14 13.632 14.6387 14.2294C14.2009 14.7763 13.8163 15.3638 13.4901 15.9839L12.6257 17.676C10.1553 22.4702 7.77011 27.3194 5.56552 32.1117L5.53436 32.1731C5.35102 32.6984 5.08977 33.2364 4.83036 33.8103C4.66963 34.1604 4.50891 34.5433 4.34819 34.9589C3.94067 36.0592 3.8091 37.2426 3.96502 38.4055C4.13691 39.5734 4.61007 40.6763 5.33788 41.6057C6.0657 42.5351 7.02307 43.2589 8.11569 43.7057C8.93496 44.0501 9.81567 44.2244 10.7044 44.2181C10.9812 44.2134 11.2576 44.1929 11.5321 44.1567C12.659 44.013 13.7453 43.6432 14.7258 43.0695C16.2151 42.1813 17.5519 41.0593 18.6849 39.7466C19.825 41.0521 21.1605 42.173 22.6439 43.0695C23.6244 43.6434 24.7107 44.0132 25.8376 44.1567C26.1121 44.1929 26.3885 44.2134 26.6654 44.2181C27.5543 44.2274 28.4356 44.0529 29.254 43.7057C30.3466 43.2589 31.304 42.5351 32.0318 41.6057C32.7596 40.6763 33.2328 39.5734 33.4047 38.4055C33.64 37.2629 33.539 36.0765 33.1141 34.99L33.1288 34.9818ZM18.7298 36.6437C17.0064 34.4694 15.8881 32.4307 15.5049 30.7009C15.3484 30.0644 15.3148 29.4039 15.4059 28.7549C15.4692 28.2741 15.6447 27.815 15.9184 27.4147C16.2384 26.9706 16.6612 26.6106 17.1506 26.3654C17.6401 26.1202 18.1815 25.9972 18.7289 26.0067C19.2774 25.9856 19.8225 26.103 20.3137 26.3481C20.8049 26.5933 21.2264 26.9582 21.5394 27.4092C21.813 27.8095 21.9885 28.2686 22.0518 28.7494C22.1433 29.3984 22.1097 30.059 21.9528 30.6954C21.5696 32.3876 20.4522 34.4015 18.7279 36.6382L18.7298 36.6437ZM31.4733 38.1443C31.3532 38.9619 31.0215 39.734 30.5112 40.3841C30.0009 41.0341 29.3295 41.5396 28.5638 41.8504C27.8 42.1734 26.966 42.2946 26.1419 42.2024C25.2845 42.0963 24.4582 41.8145 23.7146 41.3746C22.344 40.5471 21.1155 39.5043 20.0764 38.2864C22.1829 35.6977 23.4616 33.3364 23.9429 31.2262C24.1506 30.336 24.2049 29.4168 24.1033 28.5083C23.9846 27.7271 23.689 26.9833 23.2389 26.3339C22.7327 25.6116 22.0567 25.0248 21.2704 24.6252C20.4841 24.2255 19.6116 24.0254 18.7298 24.0423C17.8524 24.0311 16.9853 24.2312 16.2016 24.6258C15.4179 25.0203 14.7406 25.5977 14.2271 26.3092C13.777 26.9586 13.4813 27.7023 13.3627 28.4835C13.2277 29.3908 13.2823 30.3163 13.5231 31.2014C14.0053 33.3079 15.3143 35.7041 17.3896 38.2928C16.3577 39.518 15.128 40.5619 13.7514 41.381C13.0078 41.8304 12.1791 42.1207 11.3176 42.2335C10.4945 42.3249 9.66142 42.2148 8.89027 41.9127C8.1245 41.6019 7.4532 41.0965 6.94287 40.4464C6.43254 39.7964 6.10089 39.0243 5.98077 38.2066C5.8798 37.3717 5.97941 36.5248 6.27136 35.7362C6.37036 35.4154 6.52436 35.1184 6.68386 34.7169C6.90661 34.2035 7.16602 33.6609 7.41902 33.1173L7.45019 33.0559C9.65569 28.2892 12.0152 23.4446 14.481 18.7128L14.5727 18.4836L15.339 17.0133C15.5877 16.5064 15.8967 16.0315 16.2594 15.5989C16.5742 15.2289 16.9657 14.9317 17.4068 14.7279C17.8478 14.5241 18.3278 14.4186 18.8136 14.4186C19.2995 14.4186 19.7795 14.5241 20.2205 14.7279C20.6616 14.9317 21.0531 15.2289 21.3679 15.5989C21.7124 16.0305 22.0047 16.5012 22.2388 17.0014L23.0051 18.4717L23.0968 18.655C25.5241 23.418 27.8964 28.2663 30.0955 33.0284V33.0595C30.3485 33.5729 30.5777 34.1467 30.8307 34.6591C30.9911 35.0423 31.1515 35.3631 31.2432 35.6784C31.5084 36.4734 31.5847 37.3193 31.4659 38.1489L31.4733 38.1443Z" fill="#6B7180"/>
</svg>
