<svg width="136" height="38" viewBox="0 0 136 38" fill="none" xmlns="http://www.w3.org/2000/svg">
<g clip-path="url(#clip0_81_1548)">
<path d="M52.8404 14.6008C51.1059 14.6008 50.2479 15.9657 49.8541 16.8462C49.6342 17.3378 49.5727 17.7265 49.3943 17.7265C49.1429 17.7265 49.3229 17.3887 49.1173 16.6395C48.8466 15.6537 48.0308 14.6008 46.2976 14.6008C44.4753 14.6008 43.6951 16.1404 43.3251 16.9865C43.0721 17.5648 43.0718 17.7265 42.8772 17.7265C42.5953 17.7265 42.8289 17.267 42.9557 16.7269C43.2056 15.6635 43.0156 14.8509 43.0156 14.8509H40.127V25.713H44.0698C44.0698 25.713 44.0698 21.1735 44.0698 20.3086C44.0698 19.2426 44.5158 17.89 45.2801 17.89C46.1632 17.89 46.34 18.5682 46.34 19.8241C46.34 20.9627 46.34 25.7153 46.34 25.7153H50.2987C50.2987 25.7153 50.2987 21.1483 50.2987 20.3086C50.2987 19.3598 50.6859 17.89 51.5148 17.89C52.4102 17.89 52.5687 18.8428 52.5687 19.8241C52.5687 20.8054 52.5687 25.713 52.5687 25.713H56.4563C56.4563 25.713 56.4563 21.4091 56.4563 19.3254C56.4563 16.4907 55.4571 14.6008 52.8404 14.6008Z" fill="#6B7180"/>
<path d="M119.765 14.6008C118.031 14.6008 117.173 15.9657 116.779 16.8462C116.559 17.3378 116.498 17.7265 116.319 17.7265C116.068 17.7265 116.236 17.2973 116.042 16.6395C115.753 15.6589 115.035 14.6008 113.223 14.6008C111.4 14.6008 110.62 16.1404 110.25 16.9865C109.997 17.5648 109.997 17.7265 109.802 17.7265C109.52 17.7265 109.754 17.267 109.881 16.7269C110.131 15.6635 109.941 14.8509 109.941 14.8509H107.052V25.713H110.995C110.995 25.713 110.995 21.1735 110.995 20.3086C110.995 19.2426 111.441 17.89 112.205 17.89C113.088 17.89 113.265 18.5682 113.265 19.8241C113.265 20.9627 113.265 25.7153 113.265 25.7153H117.224C117.224 25.7153 117.224 21.1483 117.224 20.3086C117.224 19.3598 117.611 17.89 118.44 17.89C119.335 17.89 119.494 18.8428 119.494 19.8241C119.494 20.8054 119.494 25.713 119.494 25.713H123.381C123.381 25.713 123.381 21.4091 123.381 19.3254C123.381 16.4907 122.382 14.6008 119.765 14.6008Z" fill="#6B7180"/>
<path d="M62.2284 23.1743C61.2856 23.3921 60.7968 23.1017 60.7968 22.4767C60.7968 21.6206 61.6823 21.2778 62.9462 21.2778C63.5033 21.2778 64.0273 21.326 64.0273 21.326C64.0273 21.6924 63.2318 22.9428 62.2284 23.1743ZM63.1884 14.6033C60.168 14.6033 58.0008 15.7137 58.0008 15.7137V18.9777C58.0008 18.9777 60.3942 17.6017 62.3357 17.6017C63.8854 17.6017 64.0758 18.4375 64.0052 19.1312C64.0052 19.1312 63.5584 19.0129 62.1943 19.0129C58.9807 19.0129 57.3584 20.4734 57.3584 22.8155C57.3584 25.0369 59.1817 25.9656 60.7177 25.9656C62.9592 25.9656 63.9445 24.4593 64.2473 23.7447C64.4575 23.2489 64.4957 22.9148 64.6845 22.9148C64.8996 22.9148 64.8272 23.1544 64.8168 23.6479C64.7986 24.512 64.8392 25.1652 64.9762 25.7154H67.9481V20.3698C67.9481 17.0322 66.7672 14.6033 63.1884 14.6033Z" fill="#6B7180"/>
<path d="M74.4434 25.7155H78.3864V11.5627H74.4434V25.7155Z" fill="#6B7180"/>
<path d="M82.7257 20.2843C82.7257 19.3077 83.633 18.4191 85.2988 18.4191C87.1138 18.4191 88.5736 19.293 88.9011 19.4914V15.7137C88.9011 15.7137 87.7478 14.6033 84.9131 14.6033C81.9249 14.6033 79.4365 16.3518 79.4365 20.1153C79.4365 23.8787 81.6948 25.9656 84.9051 25.9656C87.4126 25.9656 88.9074 24.5878 88.9074 24.5878V20.9996C88.4345 21.2643 87.1168 22.1787 85.3169 22.1787C83.411 22.1787 82.7257 21.302 82.7257 20.2843Z" fill="#6B7180"/>
<path d="M96.8887 14.6034C94.6061 14.6034 93.738 16.7665 93.5627 17.1421C93.3872 17.5176 93.3006 17.7336 93.1571 17.7291C92.9079 17.7209 93.0816 17.268 93.1787 16.9747C93.3623 16.4206 93.7513 14.9669 93.7513 13.1802C93.7513 11.9683 93.5874 11.5627 93.5874 11.5627H90.1836V25.7155H94.1266C94.1266 25.7155 94.1266 21.1915 94.1266 20.3113C94.1266 19.4309 94.478 17.8926 95.4712 17.8926C96.294 17.8926 96.5516 18.5023 96.5516 19.7299C96.5516 20.9573 96.5516 25.7155 96.5516 25.7155H100.495C100.495 25.7155 100.495 22.4051 100.495 19.9661C100.495 17.1778 100.032 14.6034 96.8887 14.6034Z" fill="#6B7180"/>
<path d="M101.776 14.8657V25.7154H105.719V14.8657C105.719 14.8657 105.057 15.2534 103.752 15.2534C102.447 15.2534 101.776 14.8657 101.776 14.8657Z" fill="#6B7180"/>
<path d="M103.736 11.4529C102.403 11.4529 101.322 12.1582 101.322 13.0282C101.322 13.8981 102.403 14.6034 103.736 14.6034C105.069 14.6034 106.15 13.8981 106.15 13.0282C106.15 12.1582 105.069 11.4529 103.736 11.4529Z" fill="#6B7180"/>
<path d="M69.2246 14.8657V25.7154H73.1675V14.8657C73.1675 14.8657 72.5048 15.2534 71.2001 15.2534C69.8955 15.2534 69.2246 14.8657 69.2246 14.8657Z" fill="#6B7180"/>
<path d="M71.184 11.4529C69.8511 11.4529 68.7705 12.1582 68.7705 13.0282C68.7705 13.8981 69.8511 14.6034 71.184 14.6034C72.5171 14.6034 73.5977 13.8981 73.5977 13.0282C73.5977 12.1582 72.5171 11.4529 71.184 11.4529Z" fill="#6B7180"/>
<path d="M130.133 23.3812C129.228 23.3812 128.563 22.2344 128.563 20.6365C128.563 19.0847 129.247 17.8924 130.102 17.8924C131.199 17.8924 131.667 18.8986 131.667 20.6365C131.667 22.4443 131.235 23.3812 130.133 23.3812ZM131.215 14.6008C129.188 14.6008 128.259 16.1207 127.856 16.9865C127.589 17.5586 127.602 17.7265 127.408 17.7265C127.126 17.7265 127.359 17.267 127.486 16.7269C127.736 15.6635 127.546 14.8509 127.546 14.8509H124.657V28.7128H128.6C128.6 28.7128 128.6 26.4445 128.6 24.3179C129.067 25.1094 129.931 25.9552 131.264 25.9552C134.115 25.9552 135.55 23.5428 135.55 20.2834C135.55 16.5892 133.832 14.6008 131.215 14.6008Z" fill="#6B7180"/>
<path d="M26.1966 17.8818C26.4618 17.8502 26.7158 17.8487 26.9492 17.8818C27.0843 17.572 27.1076 17.0379 26.986 16.4562C26.8054 15.5917 26.561 15.0685 26.0557 15.1499C25.5506 15.2313 25.532 15.8577 25.7126 16.7223C25.8142 17.2086 25.9951 17.6242 26.1966 17.8818Z" fill="#6B7180"/>
<path d="M21.8599 18.5658C22.2213 18.7245 22.4434 18.8297 22.5303 18.7377C22.5862 18.6805 22.5696 18.5712 22.4833 18.4301C22.3049 18.1389 21.9379 17.8436 21.5486 17.6777C20.7524 17.335 19.8028 17.449 19.0703 17.9753C18.8285 18.1525 18.5993 18.398 18.632 18.547C18.6427 18.5952 18.6789 18.6315 18.7637 18.6434C18.9632 18.6662 19.6599 18.3139 20.4625 18.2648C21.029 18.2301 21.4983 18.4073 21.8599 18.5658Z" fill="#6B7180"/>
<path d="M21.1325 18.9808C20.6616 19.0551 20.402 19.2104 20.2353 19.3547C20.0931 19.4789 20.0051 19.6164 20.0059 19.7131C20.0062 19.7591 20.0262 19.7856 20.0419 19.799C20.0634 19.8178 20.0888 19.8283 20.1193 19.8283C20.2256 19.8283 20.4638 19.7327 20.4638 19.7327C21.119 19.4982 21.5511 19.5267 21.9794 19.5755C22.2161 19.602 22.3279 19.6167 22.3798 19.5356C22.3952 19.5123 22.4137 19.4619 22.3664 19.3851C22.2561 19.2062 21.7808 18.9038 21.1324 18.9808" fill="#6B7180"/>
<path d="M24.7329 20.5038C25.0524 20.6609 25.4043 20.5992 25.519 20.3661C25.6335 20.1331 25.4672 19.8168 25.1475 19.6596C24.8279 19.5027 24.476 19.5642 24.3614 19.7973C24.2469 20.0305 24.4131 20.3466 24.7329 20.5038Z" fill="#6B7180"/>
<path d="M26.7878 18.7081C26.5282 18.7036 26.3129 18.9888 26.3068 19.3448C26.3007 19.7011 26.5064 19.9932 26.766 19.9976C27.0257 20.0021 27.2412 19.7169 27.2471 19.3609C27.2532 19.0047 27.0475 18.7124 26.7878 18.7081Z" fill="#6B7180"/>
<path d="M9.34566 25.1291C9.28107 25.0482 9.17494 25.0728 9.07218 25.0968C9.0004 25.1136 8.91907 25.1324 8.82992 25.1309C8.63893 25.1271 8.47719 25.0457 8.38636 24.9061C8.26806 24.7244 8.2749 24.4535 8.40553 24.1436C8.4231 24.1016 8.44387 24.0552 8.46646 24.0046C8.67466 23.5373 9.02327 22.7552 8.63192 22.01C8.33734 21.4492 7.85695 21.0998 7.27936 21.0265C6.72486 20.9563 6.15397 21.1618 5.78983 21.5635C5.21536 22.1973 5.12557 23.0598 5.23668 23.3646C5.27741 23.4761 5.34106 23.507 5.38736 23.5133C5.48507 23.5264 5.6296 23.4553 5.72016 23.2117C5.72663 23.1942 5.73525 23.167 5.74605 23.1325C5.78645 23.0038 5.86156 22.764 5.9846 22.5718C6.13295 22.34 6.36403 22.1804 6.63524 22.1223C6.91156 22.0631 7.19397 22.1159 7.43037 22.2707C7.83286 22.5339 7.98781 23.027 7.81599 23.4976C7.7272 23.7409 7.58289 24.2062 7.61476 24.5886C7.67906 25.3623 8.15499 25.6731 8.58261 25.7062C8.99838 25.7217 9.28894 25.4885 9.36245 25.3178C9.40584 25.2169 9.36922 25.1556 9.34568 25.1291" fill="#6B7180"/>
<path d="M13.2976 10.9173C14.6536 9.35038 16.3229 7.98813 17.8182 7.22321C17.8699 7.19665 17.9248 7.25289 17.8968 7.3036C17.778 7.51862 17.5495 7.97908 17.477 8.32832C17.4657 8.38274 17.5249 8.42367 17.5708 8.39238C18.5011 7.75827 20.1195 7.07877 21.5389 6.99143C21.5999 6.98765 21.6294 7.06587 21.5809 7.1031C21.365 7.26874 21.1289 7.49786 20.9564 7.72965C20.927 7.76908 20.9547 7.82589 21.0039 7.82619C22.0006 7.83329 23.4057 8.1821 24.3216 8.69579C24.3836 8.73047 24.3393 8.85047 24.2701 8.8346C22.8844 8.5171 20.6162 8.27612 18.2601 8.85078C16.1567 9.36389 14.5512 10.1559 13.38 11.0078C13.3208 11.0509 13.2497 10.9727 13.2976 10.9173L13.2976 10.9173ZM20.0511 26.0989C20.0512 26.0992 20.0514 26.0998 20.0515 26.0998C20.0518 26.1002 20.0519 26.101 20.0523 26.1015C20.0519 26.1006 20.0515 26.0998 20.0511 26.0989ZM25.643 26.759C25.6832 26.7421 25.711 26.6963 25.7062 26.6508C25.7006 26.5947 25.6506 26.5539 25.5946 26.5597C25.5946 26.5597 22.7007 26.988 19.967 25.9873C20.2648 25.0195 21.0565 25.3689 22.2533 25.4655C24.4104 25.5941 26.3436 25.279 27.7724 24.8688C29.0106 24.5137 30.6366 23.8131 31.8997 22.8161C32.3257 23.752 32.4761 24.7818 32.4761 24.7818C32.4761 24.7818 32.8059 24.7229 33.0814 24.8924C33.3418 25.0527 33.5328 25.3858 33.4023 26.2471C33.1367 27.8562 32.4528 29.1622 31.3034 30.3637C30.6036 31.1168 29.7541 31.7717 28.7822 32.2479C28.266 32.519 27.7164 32.7536 27.1358 32.9431C22.8023 34.3585 18.3666 32.8025 16.9367 29.4611C16.8227 29.2099 16.7261 28.947 16.6501 28.6719C16.0407 26.47 16.558 23.8283 18.175 22.1654C18.1751 22.1652 18.1748 22.1646 18.175 22.1646C18.2747 22.0587 18.3764 21.9339 18.3764 21.7771C18.3764 21.6458 18.293 21.5073 18.2207 21.4091C17.6549 20.5886 15.6953 19.1903 16.0886 16.4844C16.3711 14.5403 18.0712 13.1713 19.6563 13.2524C19.7902 13.2594 19.9244 13.2675 20.0581 13.2754C20.745 13.3162 21.3442 13.4043 21.9097 13.4278C22.8561 13.4688 23.7072 13.3312 24.7152 12.4914C25.0552 12.208 25.3278 11.9624 25.7891 11.8842C25.8376 11.8759 25.9582 11.8326 26.1993 11.844C26.4453 11.8571 26.6796 11.9247 26.8901 12.0649C27.6983 12.6026 27.8128 13.9049 27.8547 14.8577C27.8786 15.4015 27.9445 16.7174 27.9668 17.0951C28.0183 17.9587 28.2453 18.0805 28.7046 18.2317C28.9629 18.3169 29.2027 18.3802 29.5561 18.4794C30.6258 18.7797 31.2601 19.0845 31.6597 19.4758C31.8982 19.7203 32.0091 19.9803 32.0434 20.2281C32.1694 21.1483 31.3289 22.285 29.1038 23.3179C26.6715 24.4467 23.7207 24.7326 21.6819 24.5056C21.5256 24.4883 20.9695 24.4252 20.9676 24.4249C19.3367 24.2053 18.4065 26.3129 19.3852 27.7568C20.0161 28.6873 21.7342 29.293 23.4533 29.2933C27.3949 29.2937 30.4244 27.6106 31.5513 26.157C31.5851 26.1135 31.5884 26.1088 31.6415 26.0284C31.6969 25.9449 31.6513 25.8988 31.5822 25.9461C30.6614 26.5761 26.5718 29.0773 22.1974 28.3248C22.1974 28.3248 21.6659 28.2374 21.1807 28.0487C20.7951 27.8987 19.9881 27.5274 19.89 26.6995C23.4202 27.7912 25.643 26.7591 25.643 26.7591V26.759ZM6.25297 18.3695C5.02524 18.6082 3.94313 19.304 3.28148 20.2651C2.88595 19.9353 2.14915 19.2968 2.01905 19.0479C0.962614 17.0421 3.17193 13.142 4.71531 10.9395C8.52955 5.49646 14.5034 1.37649 17.2689 2.12405C17.7185 2.25129 19.2074 3.9776 19.2074 3.9776C19.2074 3.9776 16.4432 5.51144 13.8796 7.64942C10.4254 10.3091 7.8161 14.1747 6.25297 18.3695ZM8.31602 27.5742C8.13019 27.6059 7.94066 27.6186 7.74949 27.6139C5.90222 27.5644 3.90682 25.9013 3.70853 23.9291C3.48938 21.7491 4.60323 20.0714 6.57539 19.6736C6.81117 19.6261 7.09611 19.5987 7.40336 19.6147C8.50835 19.6752 10.1367 20.5236 10.5087 22.9309C10.8382 25.0628 10.3149 27.2333 8.31602 27.5742V27.5742ZM33.3399 23.714C33.3241 23.6581 33.221 23.2813 33.0794 22.8273C32.9377 22.373 32.7911 22.0534 32.7911 22.0534C33.3592 21.2028 33.3693 20.4422 33.2938 20.0112C33.2131 19.4772 32.9908 19.0221 32.5427 18.5517C32.0945 18.0813 31.1781 17.5995 29.8899 17.2378C29.7427 17.1964 29.2569 17.0631 29.2142 17.0502C29.2108 17.0223 29.1786 15.4569 29.1494 14.785C29.128 14.2992 29.0863 13.5408 28.851 12.7938C28.5706 11.7827 28.0819 10.898 27.4721 10.3319C29.1551 8.58739 30.2058 6.66547 30.2033 5.01672C30.1984 1.846 26.3044 0.886667 21.5057 2.87369C21.5007 2.87575 20.4963 3.30167 20.489 3.30523C20.4844 3.30093 18.6509 1.5018 18.6233 1.47778C13.1521 -3.29439 -3.9541 15.7195 1.51507 20.3375L2.71031 21.3501C2.40028 22.1532 2.27845 23.0734 2.37797 24.063C2.5057 25.3339 3.16127 26.5522 4.22386 27.4934C5.23256 28.3872 6.55877 28.9528 7.84576 28.9517C9.97405 33.8563 14.8369 36.8651 20.5387 37.0345C26.6549 37.2161 31.789 34.3462 33.9404 29.1909C34.0811 28.8291 34.6783 27.1989 34.6783 25.7598C34.6783 24.3135 33.8606 23.714 33.3399 23.714Z" fill="#6B7180"/>
</g>
<defs>
<clipPath id="clip0_81_1548">
<rect width="136" height="37.2277" fill="white" transform="translate(0 0.265137)"/>
</clipPath>
</defs>
</svg>
