<svg width="150" height="34" viewBox="0 0 150 34" fill="none" xmlns="http://www.w3.org/2000/svg">
<g clip-path="url(#clip0_81_1544)">
<path d="M149.976 15.7516V13.1125H146.7V9.01099L146.59 9.04614L143.513 9.98364H143.455V13.0891H138.599V11.3547C138.599 10.5579 138.786 9.93677 139.138 9.52661C139.489 9.11645 140.005 8.91138 140.638 8.91138C141.106 8.91138 141.599 9.02856 142.067 9.2395L142.185 9.28638V6.51958L142.138 6.49614C141.692 6.33794 141.083 6.25591 140.333 6.25591C139.384 6.25591 138.517 6.46685 137.755 6.88169C136.993 7.28013 136.396 7.87778 135.985 8.62778C135.563 9.37778 135.353 10.245 135.353 11.1942V13.0926H133.079V15.7293H135.364V26.8387H138.634V15.7293H143.494V22.784C143.494 25.6903 144.86 27.1668 147.572 27.1668C148.017 27.1668 148.486 27.1106 148.954 27.0145C149.441 26.909 149.775 26.8036 149.962 26.6981L150.009 26.6747V24.0145L149.877 24.1036C149.701 24.2208 149.478 24.3227 149.221 24.393C148.963 24.4633 148.74 24.5102 148.574 24.5102C147.941 24.5102 147.472 24.3461 147.184 24.0098C146.886 23.6758 146.738 23.084 146.738 22.252V15.7598H149.996L149.989 15.7434L149.976 15.7516ZM125.73 24.5172C124.543 24.5172 123.606 24.1223 122.941 23.3454C122.281 22.5661 121.945 21.454 121.945 20.0407C121.945 18.5829 122.281 17.4391 122.945 16.6469C123.606 15.8594 124.534 15.4586 125.706 15.4586C126.842 15.4586 127.733 15.8407 128.389 16.5954C129.046 17.3547 129.374 18.4868 129.374 19.961C129.374 21.454 129.069 22.6012 128.46 23.3676C127.85 24.1293 126.936 24.5161 125.741 24.5161L125.73 24.5172ZM125.881 12.7821C123.62 12.7821 121.817 13.4454 120.533 14.7555C119.256 16.068 118.602 17.8797 118.602 20.1461C118.602 22.3024 119.235 24.0309 120.492 25.2907C121.746 26.5563 123.453 27.2125 125.563 27.2125C127.756 27.2125 129.524 26.5329 130.803 25.2145C132.092 23.8879 132.732 22.0903 132.732 19.879C132.732 17.6922 132.123 15.9461 130.916 14.6993C129.709 13.4407 128.017 12.8055 125.877 12.8055L125.881 12.7821ZM113.314 12.8055C111.767 12.8055 110.497 13.1993 109.517 13.9774C108.542 14.7602 108.041 15.7821 108.041 17.0243C108.041 17.6735 108.151 18.243 108.364 18.7352C108.575 19.2204 108.903 19.6493 109.342 20.0102C109.775 20.3618 110.443 20.7368 111.334 21.1211C112.084 21.4258 112.635 21.6836 112.991 21.8946C113.342 22.0903 113.591 22.293 113.717 22.4887C113.858 22.6762 113.928 22.9458 113.928 23.2622C113.928 24.1926 113.239 24.6403 111.819 24.6403C111.289 24.6403 110.687 24.5301 110.028 24.3122C109.364 24.0965 108.747 23.7848 108.192 23.384L108.051 23.2903V26.4309L108.098 26.4543C108.567 26.6653 109.145 26.8528 109.833 26.9934C110.518 27.1458 111.145 27.2161 111.684 27.2161C113.36 27.2161 114.708 26.8176 115.692 26.0395C116.676 25.252 117.18 24.1997 117.18 22.9176C117.18 21.9918 116.911 21.195 116.378 20.5563C115.85 19.9165 114.936 19.3329 113.655 18.8172C112.644 18.4071 111.991 18.0672 111.71 17.8094C111.452 17.5563 111.331 17.2 111.331 16.75C111.331 16.3516 111.496 16.0305 111.829 15.7727C112.165 15.509 112.633 15.3778 113.219 15.3778C113.764 15.3778 114.321 15.4598 114.883 15.6297C115.434 15.8032 115.921 16.0282 116.325 16.3047L116.462 16.3985V13.3985L116.415 13.375C116.034 13.211 115.54 13.0739 114.938 12.9649C114.341 12.8512 113.798 12.8008 113.327 12.8008L113.314 12.8055ZM99.499 24.5313C98.3154 24.5313 97.3779 24.1399 96.7217 23.3594C96.0537 22.586 95.7197 21.4727 95.7197 20.0547C95.7197 18.6016 96.0549 17.4532 96.7205 16.6645C97.3768 15.877 98.3072 15.4762 99.4744 15.4762C100.611 15.4762 101.513 15.8583 102.164 16.6129C102.811 17.3747 103.148 18.5067 103.148 19.9809C103.148 21.4715 102.832 22.6176 102.222 23.3852C101.625 24.1469 100.711 24.5336 99.5037 24.5336L99.499 24.5313ZM99.6678 12.8032C97.3943 12.8032 95.5897 13.4641 94.3123 14.7743C93.0268 16.0868 92.3787 17.8973 92.3787 20.1649C92.3787 22.3211 93.0115 24.0485 94.2572 25.3094C95.5135 26.575 97.2174 27.2313 99.3256 27.2313C101.529 27.2313 103.287 26.5516 104.576 25.2274C105.858 23.8985 106.509 22.1008 106.509 19.8895C106.509 17.7016 105.9 15.9555 104.704 14.7098C103.497 13.45 101.803 12.8149 99.6654 12.8149L99.6678 12.8032ZM87.4334 15.5196V13.129H84.199V26.875H87.4334V19.8438C87.4334 18.6485 87.7029 17.6641 88.2385 16.92C88.7658 16.1793 89.4689 15.8184 90.3244 15.8184C90.6174 15.8184 90.9455 15.8653 91.3064 15.959C91.658 16.0528 91.9111 16.1465 92.0564 16.2637L92.1971 16.3575V13.0997L92.1455 13.0762C91.8408 12.9403 91.4189 12.8747 90.8799 12.8747C90.0713 12.8747 89.3447 13.1372 88.7213 13.6481C88.1705 14.1028 87.7756 14.7215 87.4732 15.495H87.4146L87.4439 15.5184L87.4334 15.5196ZM78.3865 12.8008C76.8982 12.8008 75.574 13.1114 74.449 13.7383C73.3147 14.3711 72.4451 15.2618 71.8475 16.4102C71.2615 17.5469 70.9568 18.877 70.9568 20.3594C70.9568 21.6602 71.2522 22.8485 71.824 23.9008C72.4029 24.9555 73.2186 25.7758 74.2498 26.35C75.274 26.9161 76.4646 27.2055 77.7818 27.2055C79.3193 27.2055 80.6295 26.9008 81.6842 26.2915L81.7311 26.268V23.3008L81.5904 23.3981C81.1135 23.7497 80.5826 24.025 80.0084 24.2243C79.4365 24.4235 78.9162 24.5243 78.4615 24.5243C77.1889 24.5243 76.1717 24.1258 75.431 23.3465C74.681 22.5497 74.3061 21.4481 74.3061 20.0653C74.3061 18.659 74.7045 17.534 75.4732 16.7137C76.2467 15.87 77.2639 15.4481 78.5084 15.4481C79.5631 15.4481 80.6025 15.8114 81.5822 16.5145L81.7228 16.6083V13.4911L81.6842 13.4676C81.315 13.2567 80.8135 13.0926 80.1842 12.959C79.5678 12.8301 78.9607 12.7668 78.3818 12.7668L78.3865 12.8008ZM68.7373 13.095H65.5076V26.8528H68.742V13.095H68.7373ZM67.1436 7.24731C66.6115 7.24731 66.1475 7.42778 65.7654 7.78638C65.3834 8.14731 65.1889 8.59966 65.1889 9.13403C65.1889 9.66138 65.3846 10.1067 65.7631 10.4583C66.1381 10.8098 66.6068 10.9833 67.1459 10.9833C67.685 10.9833 68.1537 10.8075 68.5346 10.4559C68.919 10.1043 69.1135 9.65903 69.1135 9.13169C69.1135 8.61606 68.926 8.17075 68.551 7.79575C68.176 7.44419 67.7072 7.25669 67.1447 7.25669L67.1436 7.24731ZM59.0705 12.0965V26.8622H62.3752V7.69145H57.8049L52.0123 21.9391L46.3756 7.68911H41.6248V26.875H44.7303V12.1153H44.8357L50.7889 26.8786H53.1268L58.9861 12.1165H59.0975L59.0799 12.1094L59.0705 12.0965ZM16.801 18.0614H32.0119V33.2852H16.7775L16.7986 18.0719L16.801 18.0614ZM-0.000195312 18.0708H15.2084V33.2852H-0.00488281L-0.000195312 18.0719V18.0708ZM16.8021 1.26958H32.0131V16.4805H16.7928L16.8021 1.26489V1.26958ZM-0.000195312 1.26724H15.2084V16.4805H-0.00488281L-0.000195312 1.26489V1.26724Z" fill="#6B7180"/>
</g>
<defs>
<clipPath id="clip0_81_1544">
<rect width="150" height="32.8125" fill="white" transform="translate(0 0.472656)"/>
</clipPath>
</defs>
</svg>
