<svg width="128" height="41" viewBox="0 0 128 41" fill="none" xmlns="http://www.w3.org/2000/svg">
<path d="M51.5487 19.0327C55.4434 19.9794 57.0311 21.4496 57.0311 24.1076C57.0311 27.2525 54.6283 29.2848 50.9095 29.2848C48.2809 29.2848 45.844 28.351 43.8634 26.5827C43.8227 26.5464 43.7978 26.4956 43.7941 26.4412C43.7904 26.3868 43.8081 26.3331 43.8434 26.2916L45.5934 24.2099C45.6113 24.1886 45.6332 24.1711 45.6579 24.1584C45.6826 24.1457 45.7096 24.138 45.7373 24.1358C45.765 24.1336 45.7928 24.1369 45.8192 24.1456C45.8456 24.1543 45.87 24.1682 45.891 24.1864C47.5934 25.66 49.1153 26.2881 50.9806 26.2881C52.6607 26.2881 53.7045 25.5607 53.7045 24.3916C53.7045 23.336 53.1882 22.7462 50.1291 22.0417C46.5361 21.1726 44.4562 20.0482 44.4562 16.8698C44.4562 13.906 46.8672 11.8361 50.3179 11.8361C52.6642 11.8361 54.6736 12.5311 56.4572 13.9619C56.543 14.0313 56.5607 14.1559 56.4966 14.2465L54.9353 16.4458C54.9189 16.4684 54.8983 16.4876 54.8746 16.5022C54.8508 16.5168 54.8244 16.5265 54.7969 16.5309C54.7693 16.5353 54.7412 16.5342 54.7141 16.5276C54.687 16.5211 54.6614 16.5093 54.6389 16.4929C53.1405 15.3756 51.7116 14.8334 50.2697 14.8334C48.7831 14.8334 47.7834 15.5479 47.7834 16.6093C47.7834 17.7325 48.3538 18.2676 51.5493 19.0309L51.5487 19.0327ZM65.4444 15.8807C63.8331 15.8807 62.5112 16.5158 61.4203 17.8154V16.3511C61.4203 16.2956 61.3983 16.2424 61.359 16.2031C61.3198 16.1638 61.2665 16.1418 61.211 16.1418H58.3495C58.294 16.1418 58.2407 16.1638 58.2015 16.2031C58.1622 16.2424 58.1402 16.2956 58.1402 16.3511V32.6226C58.1402 32.7373 58.2343 32.8314 58.3495 32.8314H61.2116C61.3274 32.8314 61.4215 32.7373 61.4215 32.622V27.4854C62.5118 28.7085 63.8343 29.3071 65.4462 29.3071C68.4423 29.3071 71.4737 27.002 71.4737 22.5939C71.4737 18.1859 68.4405 15.8807 65.4444 15.8807ZM68.1436 22.5945C68.1436 24.8385 66.7616 26.4051 64.7822 26.4051C62.824 26.4051 61.348 24.7674 61.348 22.5945C61.348 20.4216 62.824 18.7839 64.7822 18.7839C66.7299 18.7839 68.1441 20.3864 68.1441 22.5945H68.1436ZM79.2443 15.8807C75.3866 15.8807 72.3652 18.8504 72.3652 22.6433C72.3652 26.3939 75.3655 29.3324 79.196 29.3324C83.0672 29.3324 86.098 26.3722 86.098 22.5945C86.098 18.8298 83.0872 15.8801 79.2437 15.8801L79.2443 15.8807ZM79.2437 26.428C77.1914 26.428 75.6448 24.7797 75.6448 22.5939C75.6448 20.3993 77.1384 18.8068 79.1966 18.8068C81.2607 18.8068 82.819 20.4552 82.819 22.6421C82.819 24.8356 81.3148 26.4274 79.2437 26.4274V26.428ZM94.3355 16.1418C94.4513 16.1418 94.5448 16.2359 94.5448 16.3511V18.811C94.5449 18.8384 94.5396 18.8656 94.5291 18.891C94.5187 18.9164 94.5033 18.9395 94.4839 18.959C94.4645 18.9784 94.4415 18.9938 94.4161 19.0044C94.3907 19.0149 94.3636 19.0203 94.3361 19.0203H91.1871V24.9367C91.1871 25.8717 91.5975 26.2881 92.5161 26.2881C93.1005 26.2912 93.677 26.1519 94.1955 25.8823C94.2276 25.8664 94.2632 25.859 94.2989 25.8606C94.3347 25.8623 94.3694 25.8731 94.3998 25.8919C94.4303 25.9108 94.4554 25.937 94.4728 25.9683C94.4903 25.9995 94.4995 26.0347 94.4996 26.0705V28.4121C94.4996 28.4868 94.4584 28.5574 94.3937 28.5944C93.591 29.049 92.7395 29.2607 91.7122 29.2607C89.1877 29.2607 87.9075 27.957 87.9075 25.3842V19.0209H86.5314C86.504 19.0208 86.4769 19.0153 86.4516 19.0048C86.4263 18.9942 86.4033 18.9788 86.384 18.9593C86.3647 18.9399 86.3493 18.9168 86.3389 18.8915C86.3285 18.8661 86.3232 18.839 86.3233 18.8116V16.3511C86.3233 16.2359 86.4162 16.1418 86.5314 16.1418H87.9075V12.9216C87.9075 12.8063 88.0016 12.7123 88.118 12.7123H90.9795C91.0953 12.7123 91.1888 12.8063 91.1888 12.9216V16.1418H94.3379H94.3355ZM110.198 16.1541C110.285 16.1541 110.363 16.2071 110.394 16.2894L113.737 25.0126L116.789 16.2941C116.804 16.2529 116.83 16.2173 116.866 16.192C116.901 16.1667 116.944 16.1531 116.987 16.153H119.967C120.001 16.1529 120.035 16.1612 120.065 16.1772C120.095 16.1932 120.121 16.2163 120.14 16.2446C120.159 16.2729 120.171 16.3054 120.175 16.3394C120.179 16.3733 120.174 16.4076 120.161 16.4393L115.196 29.2707C114.166 31.9187 112.997 32.9031 110.885 32.9031C109.755 32.9031 108.84 32.6691 107.827 32.121C107.781 32.0958 107.745 32.0538 107.729 32.0035C107.712 31.9532 107.715 31.8985 107.738 31.8505L108.708 29.7217C108.72 29.6955 108.737 29.672 108.758 29.6526C108.779 29.6331 108.804 29.6183 108.832 29.6088C108.859 29.6 108.888 29.5969 108.917 29.5996C108.946 29.6024 108.974 29.6109 108.999 29.6247C109.542 29.9217 110.073 30.0716 110.578 30.0716C111.201 30.0716 111.658 29.867 112.122 28.8355L108.03 19.0209H105.357V28.8385C105.357 28.9543 105.263 29.0484 105.147 29.0484H102.285C102.258 29.0484 102.231 29.043 102.205 29.0324C102.18 29.0219 102.157 29.0064 102.137 28.9869C102.118 28.9674 102.102 28.9442 102.092 28.9188C102.081 28.8933 102.076 28.866 102.076 28.8385V19.0209H100.701C100.646 19.0204 100.593 18.9982 100.553 18.9589C100.514 18.9196 100.492 18.8665 100.491 18.811V16.3394C100.491 16.2235 100.585 16.1294 100.701 16.1294H102.075V15.5237C102.075 12.7093 103.473 11.2204 106.117 11.2204C107.203 11.2204 107.928 11.3938 108.495 11.5614C108.585 11.5891 108.644 11.6708 108.644 11.7625V14.1736C108.644 14.2069 108.637 14.2399 108.622 14.2697C108.607 14.2995 108.585 14.3253 108.558 14.3448C108.531 14.3644 108.5 14.3773 108.467 14.3823C108.434 14.3872 108.4 14.3842 108.369 14.3735C107.832 14.1947 107.353 14.076 106.756 14.076C105.757 14.076 105.31 14.5952 105.31 15.759V16.1541H110.198H110.198ZM98.9476 16.1418C99.0629 16.1418 99.157 16.2359 99.157 16.3511V28.8379C99.157 28.9531 99.0629 29.0472 98.947 29.0472H96.085C96.0294 29.0472 95.9761 29.0252 95.9367 28.9859C95.8974 28.9467 95.8752 28.8935 95.875 28.8379V16.3511C95.875 16.2359 95.9691 16.1418 96.0844 16.1418H98.9464H98.9476ZM97.531 10.4565C98.0753 10.4565 98.5973 10.6727 98.9822 11.0576C99.3671 11.4425 99.5833 11.9645 99.5833 12.5088C99.5833 13.0531 99.3671 13.5751 98.9822 13.96C98.5973 14.3449 98.0753 14.5611 97.531 14.5611C96.9867 14.5611 96.4647 14.3449 96.0798 13.96C95.6949 13.5751 95.4787 13.0531 95.4787 12.5088C95.4787 11.9645 95.6949 11.4425 96.0798 11.0576C96.4647 10.6727 96.9867 10.4565 97.531 10.4565ZM122.604 20.1558C122.34 20.1569 122.077 20.1054 121.832 20.0046C121.588 19.9037 121.365 19.7554 121.178 19.5682C120.991 19.381 120.842 19.1585 120.742 18.9137C120.641 18.6689 120.589 18.4065 120.59 18.1418C120.59 17.8759 120.643 17.6127 120.744 17.367C120.846 17.1214 120.995 16.8983 121.183 16.7103C121.371 16.5223 121.595 16.3733 121.84 16.2716C122.086 16.1699 122.349 16.1176 122.615 16.1177C122.88 16.1165 123.142 16.1678 123.387 16.2685C123.632 16.3692 123.854 16.5174 124.041 16.7046C124.229 16.8917 124.377 17.1141 124.478 17.3588C124.579 17.6036 124.63 17.8659 124.629 18.1306C124.629 18.3965 124.577 18.6599 124.475 18.9057C124.373 19.1514 124.224 19.3747 124.036 19.5628C123.848 19.7509 123.625 19.9002 123.379 20.002C123.134 20.1039 122.87 20.1564 122.604 20.1564V20.1558ZM122.615 16.3182C121.584 16.3182 120.803 17.1385 120.803 18.1423C120.803 19.1462 121.578 19.9553 122.604 19.9553C123.636 19.9553 124.417 19.1356 124.417 18.1312C124.417 17.1274 123.641 16.3182 122.615 16.3182ZM123.062 18.3382L123.631 19.1356H123.151L122.639 18.404H122.198V19.1356H121.795V17.0215H122.739C123.229 17.0215 123.552 17.2732 123.552 17.696C123.552 18.043 123.352 18.2547 123.061 18.337L123.062 18.3382ZM122.72 17.3843H122.197V18.0524H122.72C122.983 18.0524 123.138 17.9242 123.138 17.7172C123.138 17.4996 122.983 17.3838 122.72 17.3838V17.3843ZM19.6955 1.94263C9.47163 1.94263 1.18359 10.3459 1.18359 20.5704C1.18301 30.1775 8.49958 37.9327 17.8649 39.1088H21.5262C30.8915 37.9327 38.2081 30.1775 38.2081 20.5698C38.2081 10.3459 29.9195 1.94263 19.6961 1.94263H19.6955ZM28.1853 28.6438C28.1064 28.7733 28.0028 28.886 27.8803 28.9754C27.7578 29.0648 27.6189 29.1291 27.4716 29.1648C27.3242 29.2004 27.1712 29.2066 27.0214 29.183C26.8717 29.1594 26.728 29.1064 26.5987 29.0272C22.2512 26.3704 16.78 25.7706 10.3361 27.2425C10.1884 27.2764 10.0355 27.2809 9.88611 27.2557C9.73671 27.2305 9.59374 27.1761 9.46539 27.0956C9.33704 27.0151 9.22582 26.9101 9.13809 26.7866C9.05037 26.663 8.98786 26.5234 8.95414 26.3757C8.92021 26.228 8.91576 26.075 8.94104 25.9255C8.96631 25.776 9.02082 25.633 9.10145 25.5047C9.18207 25.3763 9.28723 25.2651 9.41089 25.1774C9.53455 25.0898 9.67429 25.0274 9.82211 24.9938C16.8741 23.3825 22.9228 24.0764 27.8025 27.0578C28.0633 27.2177 28.2501 27.4746 28.3218 27.7721C28.3934 28.0695 28.3441 28.3833 28.1847 28.6444L28.1853 28.6438ZM30.4505 23.603C30.2502 23.9291 29.9286 24.1623 29.5565 24.2514C29.1843 24.3405 28.792 24.2782 28.4658 24.0782C23.4908 21.0203 15.9049 20.1341 10.0185 21.9212C9.65217 22.0317 9.25694 21.9926 8.91935 21.8124C8.58176 21.6322 8.32933 21.3256 8.21731 20.9597C7.98797 20.1952 8.41725 19.3914 9.17996 19.1603C15.9044 17.1197 24.2624 18.1077 29.9765 21.6183C30.3025 21.8187 30.5355 22.1403 30.6245 22.5125C30.7135 22.8846 30.6511 23.2769 30.4511 23.603H30.4505ZM30.6457 18.354C24.6781 14.8104 14.8353 14.4846 9.13879 16.2135C8.69929 16.3467 8.22488 16.2999 7.81993 16.0833C7.41497 15.8667 7.11265 15.4981 6.97946 15.0586C6.84627 14.6191 6.89312 14.1447 7.10971 13.7397C7.32631 13.3348 7.6949 13.0324 8.1344 12.8993C14.6736 10.9146 25.5443 11.298 32.414 15.375C32.6096 15.491 32.7804 15.6444 32.9167 15.8264C33.053 16.0084 33.1522 16.2155 33.2084 16.4359C33.2647 16.6562 33.2769 16.8855 33.2446 17.1106C33.2122 17.3357 33.1358 17.5522 33.0197 17.7478C32.9037 17.9435 32.7503 18.1145 32.5683 18.2509C32.3862 18.3873 32.179 18.4865 31.9586 18.5427C31.7381 18.599 31.5088 18.6112 31.2836 18.5787C31.0584 18.5463 30.8418 18.4697 30.6463 18.3535L30.6457 18.354Z" fill="#6B7180"/>
</svg>
