<svg width="132" height="29" viewBox="0 0 132 29" fill="none" xmlns="http://www.w3.org/2000/svg">
<g clip-path="url(#clip0_81_1571)">
<path fill-rule="evenodd" clip-rule="evenodd" d="M20.7493 1.13543V16.3163C20.7493 21.3857 18.5053 23.4909 13.242 23.4909C7.97831 23.4909 5.73431 21.3857 5.73431 16.3163V0.470459H0.664972C0.221959 0.470459 0 0.692418 0 1.13543V16.5654C0 25.0428 5.40205 28.0069 13.242 28.0069C21.0816 28.0069 26.4836 25.0428 26.4836 16.5654V0.470459H21.4138C20.9708 0.470459 20.7493 0.692418 20.7493 1.13543Z" fill="#6B7180"/>
<path fill-rule="evenodd" clip-rule="evenodd" d="M94.2391 4.87528C94.6545 4.87528 94.8485 4.73695 94.9868 4.43182L96.4555 0.802719C96.5387 0.581664 96.4555 0.470459 96.2336 0.470459H75.817C73.9052 0.470459 73.1855 1.05225 73.1855 2.35417V25.9288C73.1855 27.0373 73.7389 27.5359 75.2076 27.5359H94.2391C94.6545 27.5359 94.8485 27.3971 94.9868 27.0929L96.4555 23.4633C96.5387 23.2418 96.4555 23.1311 96.2336 23.1311H78.8091V18.3384C78.8091 16.6762 79.7232 15.928 82.1882 15.928H89.7516C90.167 15.928 90.3605 15.7901 90.4992 15.4855L91.9124 11.9947C91.9951 11.7727 91.9124 11.6624 91.6904 11.6624H78.8091V4.87528H94.2391Z" fill="#6B7180"/>
<path fill-rule="evenodd" clip-rule="evenodd" d="M52.9794 23.1867H42.9759V18.2276C42.9759 16.5654 43.8899 15.8177 46.3559 15.8177H52.9794C56.165 15.8177 57.0515 17.0365 57.0515 19.53C57.0515 22.0231 56.165 23.1867 52.9794 23.1867ZM42.9759 4.81968H51.9265C54.9182 4.81968 55.7496 5.94665 55.7496 8.28242C55.7496 10.6186 54.9182 11.7456 51.9265 11.7456H42.9759V4.81968ZM58.2983 13.269C60.5142 12.1054 61.4283 9.91705 61.4283 7.34079C61.4283 1.35694 56.5529 0.470459 51.5111 0.470459H39.9869C38.0751 0.470459 37.3555 1.05225 37.3555 2.35417V25.9288C37.3555 27.0373 37.9092 27.5359 39.3775 27.5359H53.5612C58.9076 27.5359 62.7302 25.4582 62.7302 20.0562C62.7302 16.815 61.3451 14.0723 58.2983 13.269Z" fill="#6B7180"/>
<path fill-rule="evenodd" clip-rule="evenodd" d="M121.262 13.0195H111.843V4.82013H121.262C124.78 4.82013 125.556 6.1772 125.556 8.91982C125.556 11.69 124.78 13.0195 121.262 13.0195ZM131.844 27.0648L125.778 16.6486C128.797 15.8733 131.235 13.8789 131.235 8.80906C131.235 2.24387 127.163 0.470459 120.431 0.470459H108.852C106.94 0.470459 106.22 1.05225 106.22 2.35417V26.8709C106.22 27.3139 106.442 27.5359 106.885 27.5359H111.843V19.6408C111.843 17.9785 112.757 17.2304 115.223 17.2304H120.209L125.694 27.0929C125.861 27.3695 126.027 27.5359 126.442 27.5359H131.595C131.956 27.5359 131.956 27.2308 131.844 27.0648Z" fill="#6B7180"/>
</g>
<defs>
<clipPath id="clip0_81_1571">
<rect width="132" height="27.5753" fill="white" transform="translate(0 0.470459)"/>
</clipPath>
</defs>
</svg>
