<svg width="24" height="25" viewBox="0 0 24 25" fill="none" xmlns="http://www.w3.org/2000/svg">
<path d="M17 18.7581C15.89 18.7581 15 19.6481 15 20.7581C15 21.2885 15.2107 21.7972 15.5858 22.1723C15.9609 22.5473 16.4696 22.7581 17 22.7581C17.5304 22.7581 18.0391 22.5473 18.4142 22.1723C18.7893 21.7972 19 21.2885 19 20.7581C19 20.2276 18.7893 19.7189 18.4142 19.3438C18.0391 18.9688 17.5304 18.7581 17 18.7581ZM1 2.75806V4.75806H3L6.6 12.3481L5.24 14.7981C5.09 15.0781 5 15.4081 5 15.7581C5 16.2885 5.21071 16.7972 5.58579 17.1723C5.96086 17.5473 6.46957 17.7581 7 17.7581H19V15.7581H7.42C7.3537 15.7581 7.29011 15.7317 7.24322 15.6848C7.19634 15.6379 7.17 15.5744 7.17 15.5081C7.17 15.4581 7.18 15.4181 7.2 15.3881L8.1 13.7581H15.55C16.3 13.7581 16.96 13.3381 17.3 12.7281L20.88 6.25806C20.95 6.09806 21 5.92806 21 5.75806C21 5.49284 20.8946 5.23849 20.7071 5.05095C20.5196 4.86341 20.2652 4.75806 20 4.75806H5.21L4.27 2.75806M7 18.7581C5.89 18.7581 5 19.6481 5 20.7581C5 21.2885 5.21071 21.7972 5.58579 22.1723C5.96086 22.5473 6.46957 22.7581 7 22.7581C7.53043 22.7581 8.03914 22.5473 8.41421 22.1723C8.78929 21.7972 9 21.2885 9 20.7581C9 20.2276 8.78929 19.7189 8.41421 19.3438C8.03914 18.9688 7.53043 18.7581 7 18.7581Z" fill="white"/>
</svg>
